<?xml version="1.0" encoding="UTF-8" standalone="no"?>
<!-- Created with Inkscape (http://www.inkscape.org/) -->

<svg
   width="113.79163mm"
   height="91.691292mm"
   viewBox="0 0 113.79163 91.691292"
   version="1.1"
   id="svg1"
   xmlns="http://www.w3.org/2000/svg"
   xmlns:svg="http://www.w3.org/2000/svg">
  <defs
     id="defs1" />
  <g
     id="layer1"
     transform="translate(-47.889585,-102.65835)">
    <g
       id="background-simple--inject-1"
       transform="matrix(0.26458333,0,0,0.26458333,37.617315,81.637122)">
      <path
         d="M 451.94,289.78 A 76.88,76.88 0 0 1 458.32,271 c 8,-16.38 13.75,-30.71 8.66,-49 -12.47,-44.67 -63.19,-49.89 -88.21,-83.58 -38.68,-52.06 -133.72,-56.58 -179.12,-11.59 -13.92,13.79 -20.44,33.27 -34.51,46.91 -20.73,20.11 -51.51,22.7 -72.8,42.75 -34.71,32.71 -38.08,88.14 -7.27,124.92 32.54,38.84 78.47,32.47 123.08,24.21 21.95,-4.06 44.77,-8.46 67.14,-5.34 47.71,6.72 104.32,32.93 150.56,6.84 24.63,-13.9 25.26,-35.58 24.69,-60.87 a 75.31,75.31 0 0 1 1.4,-16.47 z"
         style="fill:#92e3a9"
         id="path1" />
      <path
         d="M 451.94,289.78 A 76.88,76.88 0 0 1 458.32,271 c 8,-16.38 13.75,-30.71 8.66,-49 -12.47,-44.67 -63.19,-49.89 -88.21,-83.58 -38.68,-52.06 -133.72,-56.58 -179.12,-11.59 -13.92,13.79 -20.44,33.27 -34.51,46.91 -20.73,20.11 -51.51,22.7 -72.8,42.75 -34.71,32.71 -38.08,88.14 -7.27,124.92 32.54,38.84 78.47,32.47 123.08,24.21 21.95,-4.06 44.77,-8.46 67.14,-5.34 47.71,6.72 104.32,32.93 150.56,6.84 24.63,-13.9 25.26,-35.58 24.69,-60.87 a 75.31,75.31 0 0 1 1.4,-16.47 z"
         style="opacity:0.6;fill:#ffffff"
         id="path2" />
    </g>
    <g
       id="Shadow--inject-1"
       transform="matrix(0.26458333,0,0,0.26458333,37.617315,81.637122)">
      <ellipse
         cx="257.5"
         cy="385.5"
         rx="191.5"
         ry="40.5"
         style="fill:#00a79d;fill-opacity:1"
         id="ellipse2" />
      <ellipse
         cx="257.5"
         cy="385.5"
         rx="191.5"
         ry="40.5"
         style="opacity:0.3;fill:#ffffff"
         id="ellipse3" />
    </g>
    <g
       id="Plants--inject-1"
       transform="matrix(0.26458333,0,0,0.26458333,37.617315,81.637122)">
      <path
         d="m 39.05,114.14 a 6.24,6.24 0 0 1 5,-7.82 c 5.23,-0.71 11.65,6.31 13.69,10.56 0.17,0.37 2.26,6.43 2.16,6.43 -0.1,0 -9.27,0.21 -13,-1.45 -3.27,-1.41 -6.98,-4.1 -7.85,-7.72 z M 173.37,98 c -0.77,3.64 -4.41,6.43 -7.59,7.93 -3.18,1.5 -10.73,1.76 -12.58,1.79 -1,1.19 -2.07,2.48 -3.22,3.92 -2,2.56 -4.22,5.47 -6.42,8.79 -0.59,0.89 -1.19,1.86 -1.79,2.8 1.34,-1.37 3.19,-3.22 3.39,-3.38 3.69,-2.93 12.53,-6.44 16.92,-3.52 a 6.24,6.24 0 0 1 1.1,9.22 c -2.37,2.88 -6.88,3.68 -10.4,3.54 -3.52,-0.14 -10.55,-3.49 -12.05,-4.24 -1.29,2.09 -2.57,4.27 -3.77,6.62 a 80.28,80.28 0 0 0 -5.53,13.23 l 0.27,0.13 c 1.07,-1.41 3.4,-4.32 3.62,-4.53 3.34,-3.33 11.75,-7.78 16.44,-5.37 a 6.25,6.25 0 0 1 2.09,9 c -2,3.13 -6.43,4.42 -9.94,4.66 -4,0.29 -12.41,-2.87 -12.73,-3 a 110.83,110.83 0 0 0 -3,13.93 c -0.54,3.48 -0.95,7 -1.33,10.59 0.73,-1 3.79,-4.83 4,-5.08 3.34,-3.32 11.75,-7.78 16.43,-5.36 a 6.24,6.24 0 0 1 2.1,9.05 c -2,3.12 -6.43,4.41 -9.94,4.65 -3.95,0.28 -12,-2.71 -12.66,-3 -0.17,1.62 -0.34,3.23 -0.5,4.86 -0.52,5.29 -1,10.61 -1.66,15.84 -0.23,1.81 -0.51,3.59 -0.79,5.37 1.14,-1.48 3.26,-4.13 3.47,-4.34 3.34,-3.32 11.75,-7.78 16.44,-5.36 a 6.24,6.24 0 0 1 2.09,9 c -2,3.12 -6.43,4.41 -9.94,4.66 -3.51,0.25 -10.33,-2.12 -12.24,-2.82 -0.49,3 -1,5.89 -1.72,8.74 -0.32,1.23 -0.56,2.5 -0.94,3.66 l -1,3.49 c -0.8,2.36 -1.53,4.55 -2.33,6.73 -0.4,1.1 -0.79,2.13 -1.19,3.2 0.93,-1.68 2.45,-4.3 2.61,-4.53 2.8,-3.79 10.43,-9.46 15.43,-7.78 a 6.23,6.23 0 0 1 3.45,8.62 c -1.54,3.4 -5.69,5.34 -9.13,6.11 -3.78,0.86 -11.9,-0.79 -12.89,-1 -1,2.61 -2,5.13 -2.94,7.48 -3,7.43 -5.85,13.51 -7.88,17.74 l -0.33,0.68 h 14.79 l -5.11,99.6 A 14.22,14.22 0 0 1 100.22,364 v 0 A 14.23,14.23 0 0 1 86,350.5 l -5.11,-99.6 h 15.88 c -0.08,-0.69 -0.16,-1.42 -0.25,-2.24 -0.53,-4.6 -1.39,-11.18 -2.77,-19 -0.39,-2.26 -0.84,-4.65 -1.34,-7.1 -1,0.13 -9.22,1.17 -12.93,0 -3.36,-1 -7.36,-3.28 -8.64,-6.78 a 6.24,6.24 0 0 1 4.08,-8.34 c 5.11,-1.31 12.3,4.93 14.81,8.91 0.16,0.26 1.71,3.49 2.47,5.16 -0.3,-1.48 -0.59,-2.95 -0.93,-4.49 -0.48,-2.21 -1,-4.53 -1.59,-6.79 -0.32,-1.16 -0.65,-2.33 -1,-3.51 -0.35,-1.18 -0.75,-2.3 -1.12,-3.48 -0.58,-1.7 -1.27,-3.43 -2,-5.16 -2.22,0.62 -8.78,2.31 -12.15,1.82 -3.37,-0.49 -7.78,-2.12 -9.57,-5.38 a 6.24,6.24 0 0 1 2.77,-8.87 c 4.85,-2.07 12.9,3 16,6.57 0.1,0.11 0.68,0.93 1.35,1.91 -0.72,-1.66 -1.43,-3.33 -2.21,-5 -2.22,-4.72 -4.63,-9.47 -7,-14.23 -0.5,-1 -1,-2 -1.48,-3 -1.87,0.53 -9,2.43 -12.49,1.92 -3.49,-0.51 -7.78,-2.12 -9.57,-5.39 A 6.24,6.24 0 0 1 54,159.6 c 4.85,-2.06 12.9,3 16,6.58 0.11,0.12 0.8,1.1 1.55,2.21 -1.26,-2.61 -2.49,-5.22 -3.63,-7.86 a 112.13,112.13 0 0 1 -5,-13.86 c -0.65,0.19 -8.92,2.59 -12.85,2 -3.48,-0.5 -7.77,-2.12 -9.56,-5.38 a 6.24,6.24 0 0 1 2.76,-8.87 c 4.86,-2.06 12.91,3 16,6.57 0.22,0.26 2.66,3.82 3.49,5.13 a 1.09,1.09 0 0 1 0,-0.17 81.2,81.2 0 0 1 -2.4,-14.27 A 112.61,112.61 0 0 1 60,118.75 c 0.1,-4 0.43,-7.66 0.75,-10.89 0.19,-1.75 0.39,-3.35 0.6,-4.84 l -0.09,0.06 c -0.09,0.06 -1.85,-6.1 -1.92,-6.5 -0.78,-4.65 0.46,-14.08 5.14,-16.51 a 6.25,6.25 0 0 1 8.6,3.53 c 1.36,3.47 -0.14,7.8 -2,10.81 -1.86,3.01 -8,7.38 -9.5,8.43 -0.18,1.55 -0.36,3.21 -0.52,5 -0.25,3.23 -0.5,6.88 -0.51,10.87 0,1.07 0,2.21 0.05,3.32 0.36,-1.88 0.89,-4.44 1,-4.69 1.45,-4.48 6.89,-12.28 12.17,-12.27 a 6.24,6.24 0 0 1 6,7.09 c -0.38,3.71 -3.71,6.86 -6.72,8.69 -3.01,1.83 -10.76,2.96 -12.42,3.15 0.08,2.46 0.21,5 0.51,7.6 a 80.77,80.77 0 0 0 2.68,14.08 h 0.3 c 0.12,-1.77 0.46,-5.48 0.52,-5.79 1,-4.61 5.5,-13 10.75,-13.53 a 6.24,6.24 0 0 1 6.74,6.39 c 0,3.72 -2.93,7.23 -5.72,9.37 -3.22,2.47 -11.94,4.45 -12.27,4.52 a 109,109 0 0 0 5.15,13.3 c 1.47,3.2 3.08,6.39 4.73,9.57 0.06,-1.25 0.5,-6.12 0.57,-6.47 1,-4.61 5.5,-13 10.75,-13.54 a 6.25,6.25 0 0 1 6.74,6.39 c 0,3.73 -2.94,7.23 -5.73,9.37 -3.14,2.41 -11.48,4.35 -12.19,4.51 0.75,1.44 1.5,2.89 2.26,4.33 2.49,4.71 5,9.41 7.36,14.13 0.81,1.64 1.55,3.28 2.3,4.92 0.13,-1.87 0.45,-5.25 0.5,-5.54 1,-4.61 5.51,-13 10.75,-13.54 a 6.24,6.24 0 0 1 6.74,6.39 c 0,3.73 -2.93,7.23 -5.72,9.37 -2.79,2.14 -9.79,3.93 -11.76,4.41 1.23,2.76 2.41,5.46 3.41,8.22 0.41,1.2 0.9,2.39 1.23,3.56 l 1.06,3.49 c 0.63,2.41 1.23,4.64 1.77,6.9 0.28,1.14 0.51,2.22 0.77,3.32 -0.15,-1.9 -0.33,-4.93 -0.32,-5.21 0.25,-4.7 3.48,-13.65 8.58,-15 a 6.24,6.24 0 0 1 7.63,5.3 7.87,7.87 0 0 1 0.09,1.38 24.25,24.25 0 0 1 3.19,11.8 c 0,0.3 -0.49,3.85 -0.78,5.66 0.57,-1.4 1.13,-2.79 1.69,-4.25 0.83,-2.11 1.63,-4.36 2.43,-6.54 l 1.12,-3.47 c 0.4,-1.17 0.64,-2.33 1,-3.52 0.46,-1.74 0.84,-3.57 1.22,-5.38 -2.19,-0.72 -8.6,-2.92 -11.14,-5.19 -2.54,-2.27 -5.31,-6.06 -5,-9.77 a 6.25,6.25 0 0 1 7.2,-5.87 c 5.19,1 9.11,9.63 9.71,14.3 0,0.15 0.05,1.15 0.07,2.34 0.32,-1.78 0.65,-3.57 0.91,-5.39 0.76,-5.16 1.36,-10.45 2,-15.74 0.13,-1.11 0.28,-2.21 0.41,-3.31 -1.85,-0.59 -8.81,-2.91 -11.47,-5.29 -2.66,-2.38 -5.31,-6.06 -5,-9.77 a 6.23,6.23 0 0 1 7.2,-5.87 c 5.19,1 9.1,9.63 9.71,14.3 0,0.16 0,1.36 0.07,2.7 0.38,-2.88 0.8,-5.73 1.31,-8.56 A 109,109 0 0 1 130.13,145 c -0.66,-0.2 -8.87,-2.76 -11.83,-5.4 -2.63,-2.35 -5.32,-6.06 -5,-9.77 a 6.23,6.23 0 0 1 7.2,-5.87 c 5.18,1 9.1,9.63 9.71,14.3 0,0.33 0.11,4.65 0.08,6.2 0,-0.06 0,-0.12 0.05,-0.17 a 81.92,81.92 0 0 1 5.87,-13.23 112.93,112.93 0 0 1 6.88,-11 c 2.29,-3.29 4.58,-6.15 6.64,-8.67 1.12,-1.36 2.17,-2.58 3.16,-3.71 h -0.11 c -0.1,0 1.83,-6.12 2,-6.49 1.92,-4.3 8.15,-11.49 13.39,-10.93 a 6.24,6.24 0 0 1 5.2,7.74 z m -60.49,126.6 c -0.9,-0.43 -7.81,-3.85 -10.51,-6.78 a 66.75,66.75 0 0 1 -7.22,3.39 c 0.61,2.72 1.19,5.37 1.68,7.86 1.56,7.88 2.57,14.5 3.21,19.15 0.13,1 0.25,1.87 0.35,2.68 h 0.35 l 1.16,-2.25 c 2.09,-4.13 5,-10.09 8.18,-17.39 0.92,-2.1 1.86,-4.34 2.8,-6.66 z m 27.64,-100.7 c 0.08,0 1.68,-6.15 1.74,-6.56 0.65,-4.66 -0.84,-14.06 -5.59,-16.36 a 6.25,6.25 0 0 0 -8.5,3.77 c -1.27,3.5 0.35,7.79 2.26,10.74 2.24,3.51 10.08,8.41 10.09,8.41 z"
         style="fill:#00a79d;fill-opacity:1"
         id="path3" />
      <path
         d="m 39.05,114.14 a 6.24,6.24 0 0 1 5,-7.82 c 5.23,-0.71 11.65,6.31 13.69,10.56 0.17,0.37 2.26,6.43 2.16,6.43 -0.1,0 -9.27,0.21 -13,-1.45 -3.27,-1.41 -6.98,-4.1 -7.85,-7.72 z M 173.37,98 c -0.77,3.64 -4.41,6.43 -7.59,7.93 -3.18,1.5 -10.73,1.76 -12.58,1.79 -1,1.19 -2.07,2.48 -3.22,3.92 -2,2.56 -4.22,5.47 -6.42,8.79 -0.59,0.89 -1.19,1.86 -1.79,2.8 1.34,-1.37 3.19,-3.22 3.39,-3.38 3.69,-2.93 12.53,-6.44 16.92,-3.52 a 6.24,6.24 0 0 1 1.1,9.22 c -2.37,2.88 -6.88,3.68 -10.4,3.54 -3.52,-0.14 -10.55,-3.49 -12.05,-4.24 -1.29,2.09 -2.57,4.27 -3.77,6.62 a 80.28,80.28 0 0 0 -5.53,13.23 l 0.27,0.13 c 1.07,-1.41 3.4,-4.32 3.62,-4.53 3.34,-3.33 11.75,-7.78 16.44,-5.37 a 6.25,6.25 0 0 1 2.09,9 c -2,3.13 -6.43,4.42 -9.94,4.66 -4,0.29 -12.41,-2.87 -12.73,-3 a 110.83,110.83 0 0 0 -3,13.93 c -0.54,3.48 -0.95,7 -1.33,10.59 0.73,-1 3.79,-4.83 4,-5.08 3.34,-3.32 11.75,-7.78 16.43,-5.36 a 6.24,6.24 0 0 1 2.1,9.05 c -2,3.12 -6.43,4.41 -9.94,4.65 -3.95,0.28 -12,-2.71 -12.66,-3 -0.17,1.62 -0.34,3.23 -0.5,4.86 -0.52,5.29 -1,10.61 -1.66,15.84 -0.23,1.81 -0.51,3.59 -0.79,5.37 1.14,-1.48 3.26,-4.13 3.47,-4.34 3.34,-3.32 11.75,-7.78 16.44,-5.36 a 6.24,6.24 0 0 1 2.09,9 c -2,3.12 -6.43,4.41 -9.94,4.66 -3.51,0.25 -10.33,-2.12 -12.24,-2.82 -0.49,3 -1,5.89 -1.72,8.74 -0.32,1.23 -0.56,2.5 -0.94,3.66 l -1,3.49 c -0.8,2.36 -1.53,4.55 -2.33,6.73 -0.4,1.1 -0.79,2.13 -1.19,3.2 0.93,-1.68 2.45,-4.3 2.61,-4.53 2.8,-3.79 10.43,-9.46 15.43,-7.78 a 6.23,6.23 0 0 1 3.45,8.62 c -1.54,3.4 -5.69,5.34 -9.13,6.11 -3.78,0.86 -11.9,-0.79 -12.89,-1 -1,2.61 -2,5.13 -2.94,7.48 -3,7.43 -5.85,13.51 -7.88,17.74 l -0.33,0.68 h 14.79 l -5.11,99.6 A 14.22,14.22 0 0 1 100.22,364 v 0 A 14.23,14.23 0 0 1 86,350.5 l -5.11,-99.6 h 15.88 c -0.08,-0.69 -0.16,-1.42 -0.25,-2.24 -0.53,-4.6 -1.39,-11.18 -2.77,-19 -0.39,-2.26 -0.84,-4.65 -1.34,-7.1 -1,0.13 -9.22,1.17 -12.93,0 -3.36,-1 -7.36,-3.28 -8.64,-6.78 a 6.24,6.24 0 0 1 4.08,-8.34 c 5.11,-1.31 12.3,4.93 14.81,8.91 0.16,0.26 1.71,3.49 2.47,5.16 -0.3,-1.48 -0.59,-2.95 -0.93,-4.49 -0.48,-2.21 -1,-4.53 -1.59,-6.79 -0.32,-1.16 -0.65,-2.33 -1,-3.51 -0.35,-1.18 -0.75,-2.3 -1.12,-3.48 -0.58,-1.7 -1.27,-3.43 -2,-5.16 -2.22,0.62 -8.78,2.31 -12.15,1.82 -3.37,-0.49 -7.78,-2.12 -9.57,-5.38 a 6.24,6.24 0 0 1 2.77,-8.87 c 4.85,-2.07 12.9,3 16,6.57 0.1,0.11 0.68,0.93 1.35,1.91 -0.72,-1.66 -1.43,-3.33 -2.21,-5 -2.22,-4.72 -4.63,-9.47 -7,-14.23 -0.5,-1 -1,-2 -1.48,-3 -1.87,0.53 -9,2.43 -12.49,1.92 -3.49,-0.51 -7.78,-2.12 -9.57,-5.39 A 6.24,6.24 0 0 1 54,159.6 c 4.85,-2.06 12.9,3 16,6.58 0.11,0.12 0.8,1.1 1.55,2.21 -1.26,-2.61 -2.49,-5.22 -3.63,-7.86 a 112.13,112.13 0 0 1 -5,-13.86 c -0.65,0.19 -8.92,2.59 -12.85,2 -3.48,-0.5 -7.77,-2.12 -9.56,-5.38 a 6.24,6.24 0 0 1 2.76,-8.87 c 4.86,-2.06 12.91,3 16,6.57 0.22,0.26 2.66,3.82 3.49,5.13 a 1.09,1.09 0 0 1 0,-0.17 81.2,81.2 0 0 1 -2.4,-14.27 A 112.61,112.61 0 0 1 60,118.75 c 0.1,-4 0.43,-7.66 0.75,-10.89 0.19,-1.75 0.39,-3.35 0.6,-4.84 l -0.09,0.06 c -0.09,0.06 -1.85,-6.1 -1.92,-6.5 -0.78,-4.65 0.46,-14.08 5.14,-16.51 a 6.25,6.25 0 0 1 8.6,3.53 c 1.36,3.47 -0.14,7.8 -2,10.81 -1.86,3.01 -8,7.38 -9.5,8.43 -0.18,1.55 -0.36,3.21 -0.52,5 -0.25,3.23 -0.5,6.88 -0.51,10.87 0,1.07 0,2.21 0.05,3.32 0.36,-1.88 0.89,-4.44 1,-4.69 1.45,-4.48 6.89,-12.28 12.17,-12.27 a 6.24,6.24 0 0 1 6,7.09 c -0.38,3.71 -3.71,6.86 -6.72,8.69 -3.01,1.83 -10.76,2.96 -12.42,3.15 0.08,2.46 0.21,5 0.51,7.6 a 80.77,80.77 0 0 0 2.68,14.08 h 0.3 c 0.12,-1.77 0.46,-5.48 0.52,-5.79 1,-4.61 5.5,-13 10.75,-13.53 a 6.24,6.24 0 0 1 6.74,6.39 c 0,3.72 -2.93,7.23 -5.72,9.37 -3.22,2.47 -11.94,4.45 -12.27,4.52 a 109,109 0 0 0 5.15,13.3 c 1.47,3.2 3.08,6.39 4.73,9.57 0.06,-1.25 0.5,-6.12 0.57,-6.47 1,-4.61 5.5,-13 10.75,-13.54 a 6.25,6.25 0 0 1 6.74,6.39 c 0,3.73 -2.94,7.23 -5.73,9.37 -3.14,2.41 -11.48,4.35 -12.19,4.51 0.75,1.44 1.5,2.89 2.26,4.33 2.49,4.71 5,9.41 7.36,14.13 0.81,1.64 1.55,3.28 2.3,4.92 0.13,-1.87 0.45,-5.25 0.5,-5.54 1,-4.61 5.51,-13 10.75,-13.54 a 6.24,6.24 0 0 1 6.74,6.39 c 0,3.73 -2.93,7.23 -5.72,9.37 -2.79,2.14 -9.79,3.93 -11.76,4.41 1.23,2.76 2.41,5.46 3.41,8.22 0.41,1.2 0.9,2.39 1.23,3.56 l 1.06,3.49 c 0.63,2.41 1.23,4.64 1.77,6.9 0.28,1.14 0.51,2.22 0.77,3.32 -0.15,-1.9 -0.33,-4.93 -0.32,-5.21 0.25,-4.7 3.48,-13.65 8.58,-15 a 6.24,6.24 0 0 1 7.63,5.3 7.87,7.87 0 0 1 0.09,1.38 24.25,24.25 0 0 1 3.19,11.8 c 0,0.3 -0.49,3.85 -0.78,5.66 0.57,-1.4 1.13,-2.79 1.69,-4.25 0.83,-2.11 1.63,-4.36 2.43,-6.54 l 1.12,-3.47 c 0.4,-1.17 0.64,-2.33 1,-3.52 0.46,-1.74 0.84,-3.57 1.22,-5.38 -2.19,-0.72 -8.6,-2.92 -11.14,-5.19 -2.54,-2.27 -5.31,-6.06 -5,-9.77 a 6.25,6.25 0 0 1 7.2,-5.87 c 5.19,1 9.11,9.63 9.71,14.3 0,0.15 0.05,1.15 0.07,2.34 0.32,-1.78 0.65,-3.57 0.91,-5.39 0.76,-5.16 1.36,-10.45 2,-15.74 0.13,-1.11 0.28,-2.21 0.41,-3.31 -1.85,-0.59 -8.81,-2.91 -11.47,-5.29 -2.66,-2.38 -5.31,-6.06 -5,-9.77 a 6.23,6.23 0 0 1 7.2,-5.87 c 5.19,1 9.1,9.63 9.71,14.3 0,0.16 0,1.36 0.07,2.7 0.38,-2.88 0.8,-5.73 1.31,-8.56 A 109,109 0 0 1 130.13,145 c -0.66,-0.2 -8.87,-2.76 -11.83,-5.4 -2.63,-2.35 -5.32,-6.06 -5,-9.77 a 6.23,6.23 0 0 1 7.2,-5.87 c 5.18,1 9.1,9.63 9.71,14.3 0,0.33 0.11,4.65 0.08,6.2 0,-0.06 0,-0.12 0.05,-0.17 a 81.92,81.92 0 0 1 5.87,-13.23 112.93,112.93 0 0 1 6.88,-11 c 2.29,-3.29 4.58,-6.15 6.64,-8.67 1.12,-1.36 2.17,-2.58 3.16,-3.71 h -0.11 c -0.1,0 1.83,-6.12 2,-6.49 1.92,-4.3 8.15,-11.49 13.39,-10.93 a 6.24,6.24 0 0 1 5.2,7.74 z m -60.49,126.6 c -0.9,-0.43 -7.81,-3.85 -10.51,-6.78 a 66.75,66.75 0 0 1 -7.22,3.39 c 0.61,2.72 1.19,5.37 1.68,7.86 1.56,7.88 2.57,14.5 3.21,19.15 0.13,1 0.25,1.87 0.35,2.68 h 0.35 l 1.16,-2.25 c 2.09,-4.13 5,-10.09 8.18,-17.39 0.92,-2.1 1.86,-4.34 2.8,-6.66 z m 27.64,-100.7 c 0.08,0 1.68,-6.15 1.74,-6.56 0.65,-4.66 -0.84,-14.06 -5.59,-16.36 a 6.25,6.25 0 0 0 -8.5,3.77 c -1.27,3.5 0.35,7.79 2.26,10.74 2.24,3.51 10.08,8.41 10.09,8.41 z"
         style="opacity:0.3;fill:#ffffff"
         id="path4" />
    </g>
    <g
       id="Calendar--inject-1"
       transform="matrix(0.26458333,0,0,0.26458333,37.617315,81.637122)">
      <path
         d="m 423.61,159.26 c 0,0 -9.78,7.48 -11.13,13.24 -1.35,5.76 0.39,11.89 1.54,15.54 1.15,3.65 1.34,21.3 -9.4,29.16 -10.74,7.86 -15.54,15.73 -14.39,25.52 1.15,9.79 15.73,20.53 27.82,23 12.09,2.47 29.16,-3.07 35.87,-17.46 6.71,-14.39 -2.3,-30.26 -7.29,-39.26 -4.99,-9 -4.6,-17.46 1,-17.84 5.6,-0.38 8.44,1 8.64,-6.91 0.2,-7.91 -1.73,-20.14 -11.9,-26.28 -10.17,-6.14 -20.76,1.29 -20.76,1.29 z"
         style="fill:#2e353a;stroke:#2e353a;stroke-linecap:round;stroke-linejoin:round"
         id="path5" />
      <path
         d="m 399.53,255.76 c 1,0.67 10,4.34 16.66,-6 6.66,-10.34 -2.41,-19.87 -0.66,-29"
         style="fill:none;stroke:#ffffff;stroke-width:0.5px;stroke-miterlimit:10"
         id="path6" />
      <path
         d="m 434.55,171.16 c 0,0 -3.12,-10.08 3.64,-6.81 7.25,3.5 13,20 10.5,23.75"
         style="fill:none;stroke:#ffffff;stroke-width:0.5px;stroke-miterlimit:10"
         id="path7" />
      <path
         d="m 432.69,169.85 c 0,0 -3.75,-7.25 -1.25,-10.5 2.5,-3.25 8.25,0.5 11.25,2.75"
         style="fill:none;stroke:#ffffff;stroke-width:0.5px;stroke-miterlimit:10"
         id="path8" />
      <path
         d="m 441.19,189.6 c 0,0 1,4.5 -2,13.5 -3,9 -8.5,19.25 -3,28.75 5.5,9.5 9.75,16 3.5,25.5"
         style="fill:none;stroke:#ffffff;stroke-width:0.5px;stroke-miterlimit:10"
         id="path9" />
      <path
         d="m 441.19,194.85 a 81.09,81.09 0 0 1 -1.25,17.5 c -1.75,10 3.75,16.5 9.5,22.75 5.75,6.25 4.25,11.5 2.25,17.25"
         style="fill:none;stroke:#ffffff;stroke-width:0.5px;stroke-miterlimit:10"
         id="path10" />
      <path
         d="m 432.44,171.35 c 0,0 -11.75,1 -15.25,-0.5 -3.5,-1.5 -2.75,-2.75 -2.75,-2.75"
         style="fill:none;stroke:#ffffff;stroke-width:0.5px;stroke-miterlimit:10"
         id="path11" />
      <path
         d="m 434,211.29 c 0,0 1.53,15.54 3.49,24.53 1.96,8.99 5.08,20.34 4.3,23.47 -0.78,3.13 -18,29.72 -18,29.72 l -5.08,-3.52 10.56,-31.68 -8.89,-29.7 c 0,0 8.14,-11.93 13.62,-12.82 z"
         style="fill:#ffffff;stroke:#2e353a;stroke-linecap:round;stroke-linejoin:round"
         id="path12" />
      <path
         d="m 432.63,208.76 c -2.5,-2.88 -7.87,-10.36 -7.87,-10.36 l -8.44,-10 -11.7,-16.11 c -1.54,-2.11 -6.72,-1.35 -21.68,-1.15 -14.96,0.2 -60.37,-8.44 -60.37,-8.44 l -1.53,10 c 0,0 41.56,9 52.11,10 10.55,1 20.34,2.3 20.34,2.3 a 87.48,87.48 0 0 0 -3.84,8.83 c -1.15,3.45 -14.58,21.87 -14.58,21.87 0,0 -0.33,0.2 -0.9,0.58 -0.15,3.34 0.17,10.43 5.16,14.17 3.86,2.89 9.51,4.11 13.59,4.62 v 0 c 0.07,-0.23 0.13,-0.43 0.18,-0.57 0.58,-1.54 4.8,-3.84 7.1,-4 2.3,-0.16 9.4,0.19 13.63,-0.19 4.23,-0.38 6.52,-6.14 6.52,-6.14 0,0 9.32,-9.1 13.61,-12.82 a 7.34,7.34 0 0 0 -1.33,-2.59 z"
         style="fill:#ffffff;stroke:#2e353a;stroke-linecap:round;stroke-linejoin:round"
         id="path13" />
      <polyline
         points="398.8 187.32 393.49 184.97 397.35 191.11"
         style="fill:none;stroke:#2e353a;stroke-width:0.75px;stroke-linecap:round;stroke-linejoin:round"
         id="polyline13" />
      <path
         d="m 385.41,222.26 a 20.47,20.47 0 0 0 13.39,2.91"
         style="fill:none;stroke:#2e353a;stroke-width:0.75px;stroke-linecap:round;stroke-linejoin:round"
         id="path14" />
      <path
         d="m 381,215.27 c 0,0 0.87,3.5 6.41,5.83"
         style="fill:none;stroke:#2e353a;stroke-width:0.75px;stroke-linecap:round;stroke-linejoin:round"
         id="path15" />
      <path
         d="m 429.24,253.81 c 0,0 3.63,-1.56 6.54,2.52"
         style="fill:none;stroke:#2e353a;stroke-width:0.75px;stroke-linecap:round;stroke-linejoin:round"
         id="path16" />
      <polyline
         points="430.25 226.63 420.35 224.11 429.08 231"
         style="fill:none;stroke:#2e353a;stroke-width:0.75px;stroke-linecap:round;stroke-linejoin:round"
         id="polyline16" />
      <path
         d="m 403.17,176 c 0,0 -4.95,8.73 -10.77,8.44 -7.91,-0.4 -30.29,-7 -30.29,-9.32 0,-2.32 6.12,-3.2 6.12,-3.2"
         style="fill:none;stroke:#2e353a;stroke-width:0.75px;stroke-linecap:round;stroke-linejoin:round"
         id="path17" />
      <path
         d="m 420.35,183.24 c 0,0 -4,-1 -6.91,0.77 -2.91,1.77 -10.55,18.42 -10.55,18.42 0,0 0.57,0.77 2.88,0.77 2.31,0 2.88,3.07 2.88,5.94 0,2.87 -0.2,4.22 0.76,4 0.96,-0.22 6.72,-2.3 7.87,-1.53 1.15,0.77 -1.54,4.6 -1,5 0.54,0.4 5.37,-4.42 6.91,-9.6 1.54,-5.18 3.07,-12.85 2.68,-15.92 -0.39,-3.07 -2.87,-7.09 -5.52,-7.85 z"
         style="fill:#00a79d;fill-opacity:1;stroke:#2e353a;stroke-linecap:round;stroke-linejoin:round"
         id="path18" />
      <path
         d="m 423.61,199.17 a 86.93,86.93 0 0 1 -6.71,6.71 c -4.42,4 -8.06,6.91 -7.87,5 0.19,-1.91 4.6,-12.28 5.75,-18 1.15,-5.72 3.27,-9.6 5.57,-9.6 2.3,0 7.29,11.72 3.26,15.89 z"
         style="fill:#ffffff;stroke:#2e353a;stroke-linecap:round;stroke-linejoin:round"
         id="path19" />
      <path
         d="m 421.31,174.42 a 3.49,3.49 0 0 0 1.92,2.11 c 1.34,0.38 11.32,-5.37 11.32,-5.37 0,0 7.1,15.15 5.94,17.45 -1.16,2.3 -4.6,5.19 -8.44,7.87 -3.84,2.68 -10.93,4.8 -13.62,3.26 -2.69,-1.54 -0.77,-17.26 -0.77,-17.26 0,0 -2.11,-2.5 0.19,-6.53 2.3,-4.03 3.46,-1.53 3.46,-1.53 z"
         style="fill:#ffffff;stroke:#2e353a;stroke-linecap:round;stroke-linejoin:round"
         id="path20" />
      <path
         d="m 437.38,190.07 c 0,0 0.17,-1.19 -2.05,-1.19 -2.22,0 -6.12,4.08 -6.12,4.08"
         style="fill:none;stroke:#2e353a;stroke-width:0.75px;stroke-linecap:round;stroke-linejoin:round"
         id="path21" />
      <line
         x1="427.67999"
         y1="193.3"
         x2="426.48999"
         y2="192.11"
         style="fill:none;stroke:#2e353a;stroke-width:0.75px;stroke-linecap:round;stroke-linejoin:round"
         id="line21" />
      <path
         d="m 426,195.52 c 0,0 -3.06,-0.51 -3.57,-4.43"
         style="fill:none;stroke:#2e353a;stroke-width:0.75px;stroke-linecap:round;stroke-linejoin:round"
         id="path22" />
      <path
         d="m 433.08,183.89 c 0,0 -0.76,-3.73 -4,-4.45"
         style="fill:none;stroke:#2e353a;stroke-width:0.75px;stroke-linecap:round;stroke-linejoin:round"
         id="path23" />
      <path
         d="m 429.23,185.89 c -0.78,0.61 -1.64,0.81 -1.93,0.44 -0.29,-0.37 0.1,-1.16 0.87,-1.77 0.77,-0.61 1.64,-0.81 1.93,-0.44 0.29,0.37 -0.1,1.16 -0.87,1.77 z"
         style="fill:#2e353a"
         id="path24" />
      <path
         d="m 434.05,192.19 c -0.64,0.5 -1.35,0.67 -1.59,0.36 -0.24,-0.31 0.08,-1 0.72,-1.47 0.64,-0.47 1.35,-0.66 1.59,-0.36 0.24,0.3 -0.08,0.96 -0.72,1.47 z"
         style="fill:#2e353a"
         id="path25" />
      <path
         d="m 415.38,355.47 9.81,13.63 c 0,0 0,2.5 -3.5,2.5 -3.5,0 -5.5,0 -7.5,-2.5 -2,-2.5 -2,-4 -4,-5 -2,-1 -4,-1 -3,-6.5 1,-5.5 8.19,-2.13 8.19,-2.13 z"
         style="fill:#ffffff;stroke:#2e353a;stroke-linecap:round;stroke-linejoin:round"
         id="path26" />
      <path
         d="m 425.15,369.41 a 8.53,8.53 0 0 1 -5,0.74 c -3.54,-0.64 -5.69,-4.18 -7,-5.7 -1.31,-1.52 -2.91,-1.51 -4.42,-2.78 a 9.85,9.85 0 0 1 -1.86,-2.12 c -0.21,3.56 1.52,3.68 3.24,4.55 2,1 2,2.5 4,5 2,2.5 4,2.5 7.5,2.5 2.81,0 3.39,-1.52 3.54,-2.19 z"
         style="fill:#ffffff;stroke:#2e353a;stroke-linecap:round;stroke-linejoin:round"
         id="path27" />
      <path
         d="m 414.82,353.74 c -2,-6 -4.85,-41.92 -6.33,-53.29 -3,-23.12 -16.34,-53.13 -16.34,-53.13 l 0.77,-12.28 c -4.08,-0.51 -9.73,-1.73 -13.59,-4.62 -5,-3.74 -5.31,-10.83 -5.16,-14.17 -2.53,1.63 -10,6.54 -16.37,11.7 -7.86,6.33 -13.24,28.78 -14.77,35.87 -1.53,7.09 -3.26,28 -3.26,28 0,0 -13.82,5.37 -19.38,13 -5.56,7.63 -22.45,24.94 -22.45,24.94 l 1.54,5.76 c 0,0 5.18,-3.64 9.59,-7.1 4.41,-3.46 38.76,-22.64 41.06,-24 2.3,-1.36 5,-4 8.06,-11.7 1.12,-2.81 2.7,-7.41 4.26,-12.12 l 5.33,-16.6 5.13,-4.37 c 5.06,13.68 16.82,40.05 18.49,43.82 2,4.52 3.52,24.62 9.05,37.19 5.53,12.57 7,18.6 7,18.6 0,0 9.38,0.53 7.37,-5.5 z"
         style="fill:#2e353a;stroke:#2e353a;stroke-linecap:round;stroke-linejoin:round"
         id="path28" />
      <line
         x1="392.59"
         y1="237.41"
         x2="394.5"
         y2="248.56"
         style="fill:none;stroke:#ffffff;stroke-width:0.5px;stroke-miterlimit:10"
         id="line28" />
      <path
         d="M 122.18,151.29 93.3,396.59 a 1.9,1.9 0 0 0 2.88,1.83 L 114.74,387 a 5,5 0 0 1 6.79,1.47 l 23.32,34.67 9.73,-145.84 z"
         style="fill:#00a79d;fill-opacity:1;stroke:#2e353a;stroke-linecap:round;stroke-linejoin:round"
         id="path29" />
      <path
         d="m 122,157.46 -26.1,233 a 2.6,2.6 0 0 0 4.13,2.38 l 13.57,-10 a 6.45,6.45 0 0 1 9.23,1.65 l 15.88,24.24 a 1.43,1.43 0 0 0 2.63,-0.89 L 122.8,157.47 a 0.41,0.41 0 0 0 -0.8,-0.01 z"
         style="fill:#00a79d;fill-opacity:1;stroke:#2e353a;stroke-linecap:round;stroke-linejoin:round"
         id="path30" />
      <path
         d="M 122.36,154.08 95.88,390.44 a 2.6,2.6 0 0 0 4.13,2.38 l 13.57,-10 a 6.45,6.45 0 0 1 9.23,1.65 l 15.88,24.24 a 1.43,1.43 0 0 0 2.63,-0.89 L 122.55,154.08 a 0.1,0.1 0 0 0 -0.19,0 z"
         style="opacity:0.6"
         id="path31" />
      <path
         d="m 117.53,381.54 a 6.45,6.45 0 0 1 5.28,2.91 l 15.88,24.24 a 1.43,1.43 0 0 0 2.63,-0.89 l -2.27,-30.64 -21.86,4.28 a 1.91,1.91 0 0 1 0.34,0.1 z"
         style="fill:#00a79d;fill-opacity:1;stroke:#2e353a;stroke-linecap:round;stroke-linejoin:round"
         id="path32" />
      <path
         d="m 117.53,381.54 a 6.45,6.45 0 0 1 5.28,2.91 l 15.88,24.24 a 1.43,1.43 0 0 0 2.63,-0.89 l -2.27,-30.64 -21.86,4.28 a 1.91,1.91 0 0 1 0.34,0.1 z"
         style="opacity:0.3"
         id="path33" />
      <polygon
         points="402.19,374.1 341.71,161.97 122.77,151.14 144.84,423.14 "
         style="fill:#2e353a;stroke:#2e353a;stroke-linecap:round;stroke-linejoin:round"
         id="polygon33" />
      <polygon
         points="134.7,157.01 149.86,408.76 391.86,364.76 340.85,169.17 "
         style="display:inline;fill:#00a79d;fill-opacity:1;stroke:#2e353a;stroke-linecap:round;stroke-linejoin:round"
         id="polygon34" />
      <polygon
         points="380.88,360.25 360.45,270.56 149.49,280.9 161,400.23 "
         style="fill:#ffffff;stroke:#2e353a;stroke-linecap:round;stroke-linejoin:round"
         id="polygon35" />
      <line
         x1="191.92999"
         y1="394.29001"
         x2="188.28"
         y2="355.95999"
         style="fill:#ffffff;stroke:#2e353a;stroke-linecap:round;stroke-linejoin:round"
         id="line35" />
      <line
         x1="225.58"
         y1="388.35999"
         x2="222.06"
         y2="356.41"
         style="fill:#ffffff;stroke:#2e353a;stroke-linecap:round;stroke-linejoin:round"
         id="line36" />
      <line
         x1="258.57001"
         y1="381.97"
         x2="254.46001"
         y2="356.41"
         style="fill:#ffffff;stroke:#2e353a;stroke-linecap:round;stroke-linejoin:round"
         id="line37" />
      <line
         x1="292.56"
         y1="376.14001"
         x2="287.67001"
         y2="345.67001"
         style="fill:#ffffff;stroke:#2e353a;stroke-linecap:round;stroke-linejoin:round"
         id="line38" />
      <line
         x1="322.5"
         y1="370.73999"
         x2="318.32999"
         y2="341"
         style="fill:#ffffff;stroke:#2e353a;stroke-linecap:round;stroke-linejoin:round"
         id="line39" />
      <line
         x1="351.20999"
         y1="365.42999"
         x2="345"
         y2="329.67001"
         style="fill:#ffffff;stroke:#2e353a;stroke-linecap:round;stroke-linejoin:round"
         id="line40" />
      <path
         d="m 418.68,285.49 c 0,0 -3.06,3.08 -3.26,4.68 -0.2,1.6 1.4,6.42 1.4,6.42 l 4.82,0.8 2.12,-8.38 z"
         style="fill:#ffffff;stroke:#2e353a;stroke-linecap:round;stroke-linejoin:round"
         id="path40" />
      <path
         d="m 135.92,226.56 c 0,0 5.08,73.11 9.75,99.77 4.67,26.66 13.33,66.56 13.33,66.56 0,0 150,-23.22 224,-54.56 l -6,-28.66 z"
         style="opacity:0.49;mix-blend-mode:multiply;fill:#00a79d;fill-opacity:1"
         id="path41" />
      <path
         d="m 129.14,154.27 210.67,11.35 c 0,0 20.51,61.45 40.92,96.15 20.41,34.7 54.07,32.44 54.07,32.44 0,0 -77.2,42.21 -137.33,64.68 -62.58,23.37 -116.85,27.57 -116.85,27.57 0,0 -49.43,-67.52 -51.48,-232.19 z"
         style="fill:#00a79d;fill-opacity:1;stroke:#2e353a;stroke-linecap:round;stroke-linejoin:round"
         id="path42" />
      <path
         d="m 153.26,143.33 c -3.91,0 -6.74,3.47 -7.63,8.91 l 4,0.22 c 0.62,-3.14 1.85,-5.13 3.62,-5.13 2.06,0 4.35,3.31 4.35,8.07 0,4.76 -2.29,8.08 -4.35,8.08 a 2,2 0 0 0 0,4 c 4.68,0 8.35,-5.31 8.35,-12.08 0,-6.77 -3.66,-12.07 -8.34,-12.07 z"
         style="fill:#ffffff;stroke:#2e353a;stroke-miterlimit:10"
         id="path43" />
      <path
         d="m 159,158.64 a 13.75,13.75 0 0 1 -0.74,2.06"
         style="fill:none;stroke:#2e353a;stroke-width:0.75px;stroke-linecap:round;stroke-linejoin:round"
         id="path44" />
      <path
         d="m 147.61,150.44 c 0,0 1.5,-5.42 5.93,-5.12 3.48,0.24 6.35,5.41 5.87,10.94"
         style="fill:none;stroke:#2e353a;stroke-width:0.75px;stroke-linecap:round;stroke-linejoin:round"
         id="path45" />
      <path
         d="m 188,145.08 c -3.91,0 -6.74,3.47 -7.63,8.91 l 4,0.22 c 0.62,-3.14 1.85,-5.13 3.62,-5.13 2.06,0 4.35,3.31 4.35,8.07 0,4.76 -2.29,8.08 -4.35,8.08 a 2,2 0 0 0 0,4 c 4.68,0 8.35,-5.31 8.35,-12.08 0,-6.77 -3.65,-12.07 -8.34,-12.07 z"
         style="fill:#ffffff;stroke:#2e353a;stroke-miterlimit:10"
         id="path46" />
      <path
         d="m 193.75,160.39 a 13.75,13.75 0 0 1 -0.74,2.06"
         style="fill:none;stroke:#2e353a;stroke-width:0.75px;stroke-linecap:round;stroke-linejoin:round"
         id="path47" />
      <path
         d="m 182.36,152.19 c 0,0 1.5,-5.42 5.93,-5.12 3.48,0.24 6.35,5.41 5.87,10.94"
         style="fill:none;stroke:#2e353a;stroke-width:0.75px;stroke-linecap:round;stroke-linejoin:round"
         id="path48" />
      <path
         d="m 222.76,146.83 c -3.91,0 -6.74,3.47 -7.63,8.91 l 4,0.22 c 0.62,-3.14 1.85,-5.13 3.62,-5.13 2.06,0 4.35,3.31 4.35,8.07 0,4.76 -2.29,8.08 -4.35,8.08 a 2,2 0 0 0 0,4 c 4.68,0 8.35,-5.31 8.35,-12.08 0,-6.77 -3.66,-12.07 -8.34,-12.07 z"
         style="fill:#ffffff;stroke:#2e353a;stroke-miterlimit:10"
         id="path49" />
      <path
         d="m 228.5,162.14 a 13.75,13.75 0 0 1 -0.74,2.06"
         style="fill:none;stroke:#2e353a;stroke-width:0.75px;stroke-linecap:round;stroke-linejoin:round"
         id="path50" />
      <path
         d="m 217.11,153.94 c 0,0 1.5,-5.42 5.93,-5.12 3.48,0.24 6.35,5.41 5.87,10.94"
         style="fill:none;stroke:#2e353a;stroke-width:0.75px;stroke-linecap:round;stroke-linejoin:round"
         id="path51" />
      <path
         d="m 257.51,148.58 c -3.91,0 -6.74,3.47 -7.63,8.91 l 4,0.22 c 0.62,-3.14 1.85,-5.13 3.62,-5.13 2.06,0 4.35,3.31 4.35,8.07 0,4.76 -2.29,8.08 -4.35,8.08 a 2,2 0 0 0 0,4 c 4.68,0 8.35,-5.31 8.35,-12.08 0,-6.77 -3.66,-12.07 -8.34,-12.07 z"
         style="fill:#ffffff;stroke:#2e353a;stroke-miterlimit:10"
         id="path52" />
      <path
         d="m 263.25,163.89 a 13.75,13.75 0 0 1 -0.74,2.06"
         style="fill:none;stroke:#2e353a;stroke-width:0.75px;stroke-linecap:round;stroke-linejoin:round"
         id="path53" />
      <path
         d="m 251.86,155.69 c 0,0 1.5,-5.42 5.93,-5.12 3.48,0.24 6.35,5.41 5.87,10.94"
         style="fill:none;stroke:#2e353a;stroke-width:0.75px;stroke-linecap:round;stroke-linejoin:round"
         id="path54" />
      <path
         d="m 292.89,150.13 c -3.91,0 -6.74,3.47 -7.62,8.92 l 4,0.22 c 0.63,-3.14 1.86,-5.14 3.62,-5.14 2.06,0 4.36,3.32 4.36,8.08 0,4.76 -2.3,8.07 -4.36,8.07 a 2,2 0 0 0 0,4 c 4.69,0 8.36,-5.3 8.36,-12.07 0,-6.77 -3.67,-12.08 -8.36,-12.08 z"
         style="fill:#ffffff;stroke:#2e353a;stroke-miterlimit:10"
         id="path55" />
      <path
         d="m 298.63,165.45 a 13.25,13.25 0 0 1 -0.74,2.05"
         style="fill:none;stroke:#2e353a;stroke-width:0.75px;stroke-linecap:round;stroke-linejoin:round"
         id="path56" />
      <path
         d="m 287.24,157.25 c 0,0 1.51,-5.43 5.93,-5.13 3.49,0.24 6.35,5.42 5.88,10.95"
         style="fill:none;stroke:#2e353a;stroke-width:0.75px;stroke-linecap:round;stroke-linejoin:round"
         id="path57" />
      <path
         d="m 326.88,152 c -3.91,0 -6.74,3.47 -7.62,8.91 l 4,0.23 c 0.63,-3.14 1.86,-5.14 3.62,-5.14 2.06,0 4.36,3.32 4.36,8.07 0,4.75 -2.3,8.08 -4.36,8.08 a 2,2 0 0 0 0,4 c 4.69,0 8.36,-5.31 8.36,-12.08 0,-6.77 -3.67,-12.07 -8.36,-12.07 z"
         style="fill:#ffffff;stroke:#2e353a;stroke-miterlimit:10"
         id="path58" />
      <path
         d="m 332.62,167.26 a 13,13 0 0 1 -0.74,2.06"
         style="fill:none;stroke:#2e353a;stroke-width:0.75px;stroke-linecap:round;stroke-linejoin:round"
         id="path59" />
      <path
         d="m 321.23,159.07 c 0,0 1.51,-5.43 5.93,-5.13 3.49,0.24 6.35,5.41 5.88,10.94"
         style="fill:none;stroke:#2e353a;stroke-width:0.75px;stroke-linecap:round;stroke-linejoin:round"
         id="path60" />
      <path
         d="m 423.76,289 c 0,0 2,2.74 2,3.91 0,1.17 -2.74,3.13 -2.74,5.86 0,2.73 -3.52,2 -3.91,0 -0.39,-2 0.78,-4.69 0.78,-4.69 0,0 -1.63,-1 -2,-4.52 -0.37,-3.52 2.8,-2.52 2.8,-2.52 z"
         style="fill:#ffffff;stroke:#2e353a;stroke-linecap:round;stroke-linejoin:round"
         id="path61" />
      <path
         d="m 373.76,261.93 c -14.49,-24.64 -29.71,-63.55 -35.12,-77.87 l -188.27,-7.63 c -0.12,139.15 42,196.64 42,196.64 0,0 47.95,-3.71 103.25,-24.37 53.14,-19.85 116.52,-53.17 116.52,-53.17 0,0 -20.35,-2.93 -38.38,-33.6 z"
         style="fill:#ffffff;stroke:#2e353a;stroke-linecap:round;stroke-linejoin:round"
         id="path62" />
      <path
         d="m 338.64,184.06 -188.27,-7.63 c 0,13.69 0.39,26.57 1.11,38.7 L 350.3,213.27 C 345.15,201 341,190.25 338.64,184.06 Z"
         style="fill:#2e353a;stroke:#2e353a;stroke-linecap:round;stroke-linejoin:round"
         id="path63" />
      <line
         x1="341.97"
         y1="225.53999"
         x2="350.87"
         y2="225.23"
         style="fill:none;stroke:#2e353a;stroke-width:3px;stroke-linecap:round;stroke-linejoin:round"
         id="line63" />
      <line
         x1="315.81"
         y1="226.42999"
         x2="335.29999"
         y2="225.75999"
         style="fill:none;stroke:#2e353a;stroke-width:3px;stroke-linecap:round;stroke-linejoin:round"
         id="line64" />
      <line
         x1="284.14001"
         y1="227.5"
         x2="309.19"
         y2="226.64999"
         style="fill:none;stroke:#2e353a;stroke-width:3px;stroke-linecap:round;stroke-linejoin:round"
         id="line65" />
      <line
         x1="251.92"
         y1="228.59"
         x2="278.60999"
         y2="227.69"
         style="fill:none;stroke:#2e353a;stroke-width:3px;stroke-linecap:round;stroke-linejoin:round"
         id="line66" />
      <line
         x1="220.77"
         y1="229.64999"
         x2="245.24001"
         y2="228.82001"
         style="fill:none;stroke:#2e353a;stroke-width:3px;stroke-linecap:round;stroke-linejoin:round"
         id="line67" />
      <line
         x1="187.95"
         y1="230.77"
         x2="212.44"
         y2="229.92999"
         style="fill:none;stroke:#2e353a;stroke-width:3px;stroke-linecap:round;stroke-linejoin:round"
         id="line68" />
      <line
         x1="159.06"
         y1="231.75"
         x2="181.85001"
         y2="230.97"
         style="fill:none;stroke:#2e353a;stroke-width:3px;stroke-linecap:round;stroke-linejoin:round"
         id="line69" />
      <line
         x1="155.35001"
         y1="253.2"
         x2="362.48001"
         y2="240.58"
         style="fill:none;stroke:#2e353a;stroke-linecap:round;stroke-linejoin:round"
         id="line70" />
      <path
         d="m 188.08,251.42 c 0,0 3.4,55.08 39.71,116.22"
         style="fill:none;stroke:#2e353a;stroke-linecap:round;stroke-linejoin:round"
         id="path70" />
      <path
         d="m 221.5,249.21 c 0,0 3.83,63 43.64,109.13"
         style="fill:none;stroke:#2e353a;stroke-linecap:round;stroke-linejoin:round"
         id="path71" />
      <path
         d="m 251.76,247.35 c 0,0 2,58 46.75,99.68"
         style="fill:none;stroke:#2e353a;stroke-linecap:round;stroke-linejoin:round"
         id="path72" />
      <path
         d="m 283.13,246 c 0,0 4.94,64.48 48.25,87.19"
         style="fill:none;stroke:#2e353a;stroke-linecap:round;stroke-linejoin:round"
         id="path73" />
      <path
         d="m 316,243.41 c 0,0 3.48,48.77 47.78,75.48"
         style="fill:none;stroke:#2e353a;stroke-linecap:round;stroke-linejoin:round"
         id="path74" />
      <path
         d="m 341.88,241.83 c 0,0 11.92,50 45.27,66.19"
         style="fill:none;stroke:#2e353a;stroke-linecap:round;stroke-linejoin:round"
         id="path75" />
      <line
         x1="159.89"
         y1="281.60999"
         x2="371.45001"
         y2="258.34"
         style="fill:none;stroke:#2e353a;stroke-linecap:round;stroke-linejoin:round"
         id="line75" />
      <path
         d="m 165.41,306.5 c 0,0 45.17,-1.77 215.88,-33.23"
         style="fill:none;stroke:#2e353a;stroke-linecap:round;stroke-linejoin:round"
         id="path76" />
      <path
         d="m 173.38,332.85 c 0,0 44,5 216.38,-49.89"
         style="fill:none;stroke:#2e353a;stroke-linecap:round;stroke-linejoin:round"
         id="path77" />
      <path
         d="m 182.9,355.84 c 0,0 36.68,12.15 216.86,-65"
         style="fill:none;stroke:#2e353a;stroke-linecap:round;stroke-linejoin:round"
         id="path78" />
      <path
         d="m 231.69,203.65 -67.82,-0.91 a 2.27,2.27 0 0 1 -2.22,-2 l -0.58,-5.48 a 2.24,2.24 0 0 1 2.26,-2.48 l 67,1.16 a 2.26,2.26 0 0 1 2.15,1.7 l 1.36,5.21 a 2.24,2.24 0 0 1 -2.15,2.8 z"
         style="fill:#ffffff"
         id="path79" />
    </g>
  </g>
</svg>
